# xmcd
#
# Track frame offsets: 
#        150
#        16959
#        32453
#        50261
#        68295
#        86604
#        109003
#        127792
#        145122
#        166045
#        185456
#        202939
#        220986
#
# Disc length: 3177 seconds
#
# Revision: 0
# Processed by: cddbd v1.5.2PL0 Copyright (c) Steve Scherf et al.
# Submitted via: ExactAudioCopy v1.0b3
#
DISCID=9a0c670d
DTITLE=群星 - stereo最美声音(金曲篇)
DYEAR=2013
DGENRE=stereo
TTITLE0=男神你爱谁
TTITLE1=马上有爱情
TTITLE2=你的爱太贵
TTITLE3=卷珠帘
TTITLE4=想太多
TTITLE5=你的选择
TTITLE6=等你
TTITLE7=永远
TTITLE8=江山春好处
TTITLE9=千年瑶寨
TTITLE10=真心换真情
TTITLE11=不要因为寂寞才相爱
TTITLE12=溜溜地乐山溜溜地美
EXTD=
EXTT0=
EXTT1=
EXTT2=
EXTT3=
EXTT4=
EXTT5=
EXTT6=
EXTT7=
EXTT8=
EXTT9=
EXTT10=
EXTT11=
EXTT12=
PLAYORDER=
